<svg width="36" height="36" viewBox="0 0 36 36" fill="none" xmlns="http://www.w3.org/2000/svg">
<rect width="36" height="36" rx="18" fill="#F6F6F6"/>
<path d="M25.5 12.9836C22.725 12.7086 19.9333 12.5669 17.15 12.5669C15.5 12.5669 13.85 12.6502 12.2 12.8169L10.5 12.9836" stroke="#DB5962" stroke-width="1.5" stroke-linecap="round" stroke-linejoin="round"/>
<path d="M15.0833 12.1415L15.2666 11.0498C15.4 10.2582 15.5 9.6665 16.9083 9.6665H19.0916C20.5 9.6665 20.6083 10.2915 20.7333 11.0582L20.9166 12.1415" stroke="#DB5962" stroke-width="1.5" stroke-linecap="round" stroke-linejoin="round"/>
<path d="M23.7084 15.6167L23.1667 24.0084C23.075 25.3167 23 26.3334 20.675 26.3334H15.325C13 26.3334 12.925 25.3167 12.8334 24.0084L12.2917 15.6167" stroke="#DB5962" stroke-width="1.5" stroke-linecap="round" stroke-linejoin="round"/>
<path d="M16.6083 21.75H19.3833" stroke="#DB5962" stroke-width="1.5" stroke-linecap="round" stroke-linejoin="round"/>
<path d="M15.9167 18.4165H20.0834" stroke="#DB5962" stroke-width="1.5" stroke-linecap="round" stroke-linejoin="round"/>
</svg>
