<svg width="36" height="36" viewBox="0 0 36 36" fill="none" xmlns="http://www.w3.org/2000/svg">
<rect width="36" height="36" rx="18" fill="#F6F6F6"/>
<path d="M17.1667 9.6665H15.5C11.3334 9.6665 9.66669 11.3332 9.66669 15.4998V20.4998C9.66669 24.6665 11.3334 26.3332 15.5 26.3332H20.5C24.6667 26.3332 26.3334 24.6665 26.3334 20.4998V18.8332" stroke="#00B2F5" stroke-width="1.5" stroke-linecap="round" stroke-linejoin="round"/>
<path d="M21.3667 10.5169L14.8 17.0835C14.55 17.3335 14.3 17.8252 14.25 18.1835L13.8917 20.6919C13.7584 21.6002 14.4 22.2335 15.3084 22.1085L17.8167 21.7502C18.1667 21.7002 18.6584 21.4502 18.9167 21.2002L25.4834 14.6335C26.6167 13.5002 27.15 12.1835 25.4834 10.5169C23.8167 8.85021 22.5 9.38354 21.3667 10.5169Z" stroke="#00B2F5" stroke-width="1.5" stroke-miterlimit="10" stroke-linecap="round" stroke-linejoin="round"/>
<path d="M20.425 11.4585C20.9833 13.4502 22.5417 15.0085 24.5417 15.5752" stroke="#00B2F5" stroke-width="1.5" stroke-miterlimit="10" stroke-linecap="round" stroke-linejoin="round"/>
</svg>
