<svg width="18" height="18" viewBox="0 0 18 18" fill="none" xmlns="http://www.w3.org/2000/svg">
<path d="M11.43 16.7026H11.3325C8.00251 16.7026 6.39751 15.3901 6.12001 12.4501C6.09001 12.1426 6.31501 11.8651 6.63001 11.8351C6.93001 11.8051 7.21501 12.0376 7.24501 12.3451C7.46251 14.7001 8.57251 15.5776 11.34 15.5776H11.4375C14.49 15.5776 15.57 14.4976 15.57 11.4451V6.55511C15.57 3.50261 14.49 2.42261 11.4375 2.42261H11.34C8.55751 2.42261 7.44751 3.31511 7.24501 5.71511C7.20751 6.02261 6.94501 6.25511 6.63001 6.22511C6.31501 6.20261 6.09001 5.92511 6.11251 5.61761C6.36751 2.63261 7.98001 1.29761 11.3325 1.29761H11.43C15.1125 1.29761 16.6875 2.87261 16.6875 6.55511V11.4451C16.6875 15.1276 15.1125 16.7026 11.43 16.7026Z" fill="#DB5962"/>
<path d="M11.25 9.5625H2.71503C2.40753 9.5625 2.15253 9.3075 2.15253 9C2.15253 8.6925 2.40753 8.4375 2.71503 8.4375H11.25C11.5575 8.4375 11.8125 8.6925 11.8125 9C11.8125 9.3075 11.5575 9.5625 11.25 9.5625Z" fill="#DB5962"/>
<path d="M4.38752 12.0749C4.24502 12.0749 4.10252 12.0224 3.99002 11.9099L1.47752 9.39738C1.26002 9.17988 1.26002 8.81988 1.47752 8.60238L3.99002 6.08988C4.20752 5.87238 4.56752 5.87238 4.78502 6.08988C5.00252 6.30738 5.00252 6.66738 4.78502 6.88488L2.67002 8.99988L4.78502 11.1149C5.00252 11.3324 5.00252 11.6924 4.78502 11.9099C4.68002 12.0224 4.53002 12.0749 4.38752 12.0749Z" fill="#DB5962"/>
</svg>
